<svg xmlns="http://www.w3.org/2000/svg" viewBox="0 0 64 64"><g id="_07-Tiurn_tap_on" data-name="07-Tiurn tap on"><polygon points="57 40 57 44 56 44 50 44 49 44 49 40 57 40" style="fill:#afb4c8"/><polygon points="29 59 29 63 13 63 13 59 15 59 27 59 29 59" style="fill:#cdd2e1"/><polygon points="26 30.17 26 35 16 35 16 32 15.97 31.84 26 30.17" style="fill:#bec3d2"/><path d="M57,35v5H49L27,45V37l23-4h5A2.006,2.006,0,0,1,57,35Z" style="fill:#e9edf5"/><polygon points="27 45 27 59 15 59 15 35 16 35 26 35 27 35 27 37 27 45" style="fill:#e9edf5"/><path d="M41.25,18,42,20.93,39.36,22,38,22.55V19.88a5.925,5.925,0,0,1,.52-2.43L41,17l.25.98" style="fill:#bec3d2"/><path d="M46.41,22.59A1.955,1.955,0,0,1,47,24a2.006,2.006,0,0,1-2,2H38V22.55L39.36,22H45A1.955,1.955,0,0,1,46.41,22.59Z" style="fill:#ffaf9c"/><path d="M44,18a2.015,2.015,0,0,1,2,2,2.006,2.006,0,0,1-2,2H39.36L42,20.93,41.25,18Z" style="fill:#ffaf9c"/><path d="M43,16a2,2,0,0,1-1.75,1.98L41,17l-2.48.45a5.927,5.927,0,0,1,1.73-2.25l1.37-1.1a1.842,1.842,0,0,1,.38.17l.16.1c.04.03.07.06.11.09a1.661,1.661,0,0,1,.14.13A2.3,2.3,0,0,1,43,16Z" style="fill:#fa8f70"/><path d="M31.28,15.72A2.464,2.464,0,0,1,32,17.46v1.15l-15.15,2.7-1.93-.89,13.59-5.19a2.448,2.448,0,0,1,2.77.49Z" style="fill:#fa8f70"/><path d="M41.62,14.1l-1.37,1.1A6.036,6.036,0,0,0,38,19.88V27a3,3,0,0,1-6,0V17.46a2.453,2.453,0,0,0-3.49-2.23L14.92,20.42l-2.55.98A7.067,7.067,0,0,1,9.5,22a2.5,2.5,0,0,1-1.18-4.71L23,11l3-3,7-7H50v.73a11.926,11.926,0,0,1-.84,4.38,11.847,11.847,0,0,1-3.59,4.83Z" style="fill:#ffc9bd"/><rect x="50" y="44" width="6" height="19" style="fill:#4fc3f2"/><path d="M44.5,21A1.5,1.5,0,0,1,43,19.5V18H41.25L42,20.93,39.36,22H44a2.006,2.006,0,0,0,2-2,2.071,2.071,0,0,0-.025-.251A1.5,1.5,0,0,1,44.5,21Z" style="fill:#fa8f70"/><path d="M45,25H41.236a1.236,1.236,0,0,1-.553-2.342L42,22H39.36L38,22.55V26h7a2.006,2.006,0,0,0,2-2,1.966,1.966,0,0,0-.071-.5A2,2,0,0,1,45,25Z" style="fill:#fa8f70"/><path d="M48,1V2.977a4.208,4.208,0,0,1-.781,2.505A19.391,19.391,0,0,1,41.85,9.925,7.482,7.482,0,0,0,38,16.233V19.88a6.036,6.036,0,0,1,2.25-4.68l1.37-1.1,3.95-3.16a11.847,11.847,0,0,0,3.59-4.83A11.926,11.926,0,0,0,50,1.73V1Z" style="fill:#ffaf9c"/><path d="M34,28V17a3.988,3.988,0,0,0-2.942-3.84,1.971,1.971,0,0,0-1.735-.2L9.677,20.036A1.994,1.994,0,0,1,7.111,18.78,2.49,2.49,0,0,0,9.5,22a7.067,7.067,0,0,0,2.87-.6l2.55-.98,13.59-5.19A2.456,2.456,0,0,1,32,17.46V27a2.973,2.973,0,0,0,3.548,2.944A2,2,0,0,1,34,28Z" style="fill:#ffaf9c"/><path d="M19.779,32.8,26,32.111V30.17L15.97,31.84,16,32v3h2v-.21A2,2,0,0,1,19.779,32.8Z" style="fill:#8a90a0"/><path d="M16,59h0a2,2,0,0,0,2,2H29v2H13V59Z" style="fill:#9da3b5"/><path d="M33.458,41.422A2,2,0,0,1,31,39.475V36.3L27,37v8l22-5h8V38H48Z" style="fill:#cdd2e1"/><path d="M57,40H49v4h2V43a2,2,0,0,1,2-2h4Z" style="fill:#9da3b5"/><path d="M19,35V54a2,2,0,0,0,2,2h6v3H15V35Z" style="fill:#dce1eb"/><rect x="23" y="37" width="3" height="4" rx="1.5" style="fill:#fafcff"/><rect x="23" y="43" width="3" height="12" rx="1.5" style="fill:#fafcff"/><polygon points="32 24 32 25 31.95 25 27 27 27 30 15 32 13 22 32 18.61 32 24" style="fill:#e9edf5"/><path d="M40.316,20.561A1,1,0,0,1,39,19.613v-2.25l-.48.087A5.925,5.925,0,0,0,38,19.88v2.67L39.36,22,42,20.93l-.219-.857Z" style="fill:#afb4c8"/><path d="M27,26.162V27l4.95-2H32V22.333l-2.949.983A3,3,0,0,0,27,26.162Z" style="fill:#bec3d2"/><path d="M16.476,24.8l-.419-3.349L13,22l2,10,12-2V27.182l-5.84,1.062A4,4,0,0,1,16.476,24.8Z" style="fill:#bec3d2"/><path d="M56,36.5a.5.5,0,0,1-.5-.5V35a.5.5,0,0,0-.5-.5H54a.5.5,0,0,1,0-1h1A1.5,1.5,0,0,1,56.5,35v1A.5.5,0,0,1,56,36.5Z" style="fill:#fafcff"/><path d="M56,44H50v6a1,1,0,0,0,1,1h0a1,1,0,0,0,1-1V48a2,2,0,0,1,2-2h2Z" style="fill:#4a9bf6"/><rect x="54" y="48" width="2" height="4" rx="1" style="fill:#64e9f0"/><rect x="52" y="53" width="2" height="8" rx="1" style="fill:#64e9f0"/><path d="M51,55h0a1,1,0,0,1,1,1v7a0,0,0,0,1,0,0H50a0,0,0,0,1,0,0V56A1,1,0,0,1,51,55Z" style="fill:#4a9bf6"/><path d="M55,32H50a.971.971,0,0,0-.171.015l-16,2.782.342,1.971L50.086,34H55a1,1,0,0,1,1,1v4H49a.975.975,0,0,0-.222.025L28,43.747V35a1,1,0,0,0-1-1V31.014l.165-.028A1,1,0,0,0,28,30V27.674l3-1.213V27a4,4,0,0,0,8,0V23.227L39.561,23H45a1,1,0,0,1,0,2H40v2h5a2.994,2.994,0,0,0,1.6-5.529A2.967,2.967,0,0,0,47,20a3,3,0,0,0-3-3h-.184a2.877,2.877,0,0,0-.55-2.932l2.928-2.343a12.824,12.824,0,0,0,3.89-5.243A12.748,12.748,0,0,0,51,1.727V1H49v.727a10.771,10.771,0,0,1-.772,4.012,10.823,10.823,0,0,1-3.283,4.424l-5.323,4.259a6.985,6.985,0,0,0-1.769,2.124l-.029,0,.007.036A6.952,6.952,0,0,0,37,19.877V27a2,2,0,0,1-4,0V17.456A3.459,3.459,0,0,0,29.544,14a3.381,3.381,0,0,0-1.395.295L11.97,20.485A6.115,6.115,0,0,1,9.5,21,1.506,1.506,0,0,1,8,19.5a1.486,1.486,0,0,1,.711-1.286l14.683-6.291a1,1,0,0,0,.313-.212l10-10L32.293.293l-9.864,9.864L7.843,16.411A3.5,3.5,0,0,0,9.5,23a8.112,8.112,0,0,0,2.591-.426L14.02,32.2A1,1,0,0,0,15,33h0v1a1,1,0,0,0-1,1V56h2V36H26V58H13a1,1,0,0,0-1,1v4a1,1,0,0,0,1,1H29a1,1,0,0,0,1-1V59a1,1,0,0,0-1-1H28V45.8l20-4.545V44a1,1,0,0,0,1,1h8a1,1,0,0,0,1-1V35A3,3,0,0,0,55,32ZM39,19.877a5.019,5.019,0,0,1,.249-1.549l1.011-.18.556,2.187L39.172,21H39ZM45,20a1,1,0,0,1-1,1H42.99a.963.963,0,0,0-.021-.311L42.54,19H44A1,1,0,0,1,45,20Zm-3.283-4.694A1,1,0,0,1,42,16a.969.969,0,0,1-.152.5.993.993,0,0,0-1.013-.481l.036-.033ZM28,62H14V60H28Zm.929-45.864A1.456,1.456,0,0,1,31,17.456v.314L19.11,19.893ZM14.181,22.805,31,19.8v4.5l-4.375,1.769A1,1,0,0,0,26,27v2.153l-10.209,1.7ZM17,34V32.68l8-1.333V34Zm33,9V41h6v2Z"/><rect x="29.984" y="35.304" width="2.031" height="2" transform="translate(-5.764 5.851) rotate(-9.87)"/><rect x="55" y="46" width="2" height="17"/><rect x="49" y="46" width="2" height="17"/><path d="M49.725,15.039l.55,1.922C57.912,14.779,58,6.087,58,6H56C56,6.072,55.928,13.266,49.725,15.039Z"/><path d="M48.757,12.03l.486,1.94c4.583-1.146,5.7-7.534,5.743-7.805l-1.972-.331C53.005,5.888,52.067,11.2,48.757,12.03Z"/></g></svg>