<?xml version="1.0" encoding="iso-8859-1"?>
<!-- Generator: Adobe Illustrator 19.0.0, SVG Export Plug-In . SVG Version: 6.00 Build 0)  -->
<svg xmlns="http://www.w3.org/2000/svg" xmlns:xlink="http://www.w3.org/1999/xlink" version="1.1" id="Layer_1" x="0px" y="0px" viewBox="0 0 511.999 511.999" style="enable-background:new 0 0 511.999 511.999;" xml:space="preserve">
<path style="fill:#DCEBEF;" d="M50.434,8.679l0.028,0.015c31.948,17.748,70.794,17.748,102.742,0l0.028-0.015l0.016,0.009  C185.198,26.44,224.048,26.44,256,8.689l0.017-0.009l0.014,0.008c31.952,17.751,70.803,17.751,102.754,0l0.014-0.009L358.8,8.68  c31.955,17.756,70.812,17.756,102.766-0.001l0,0v471.429c0,12.821-10.393,23.214-23.214,23.214H73.647  c-12.821,0-23.214-10.393-23.214-23.214V8.679H50.434z"/>
<path style="fill:#FEC95B;" d="M294.306,330.588l-18.249,50.513c-5.451,15.073-16.661,26.862-30.618,33.265  c-7.454,3.419-15.632,4.7-23.686,3.956c-4.013-0.371-7.991-1.252-11.847-2.612c-5.201-1.839-10.63-2.754-16.068-2.754  c-2.568,0-5.15,0.2-7.697,0.616c-2.833,0.465-5.631,1.173-8.369,2.139c-11.575,4.1-24.358,3.777-35.533-1.345  c-4.786-2.203-9.25-5.029-13.27-8.413h-0.007c-4.442-3.734-8.349-8.148-11.539-13.105c-2.332-3.634-4.285-7.569-5.795-11.747  l-18.257-50.513c-20.081-55.593,21.103-114.261,80.208-114.261h20.26h20.267C273.21,216.327,314.394,274.995,294.306,330.588"/>
<path style="fill:#FCE481;" d="M185.698,216.327h-19.427c59.104,0,100.29,58.668,80.201,114.261l-18.249,50.513  c-5.451,15.073-16.661,26.862-30.618,33.265c-3.096,1.42-6.32,2.45-9.605,3.14c1.77,0.366,3.553,0.649,5.346,0.816  c8.055,0.744,16.232-0.537,23.686-3.956c13.957-6.402,25.167-18.192,30.618-33.265l18.249-50.513  C285.986,274.995,244.802,216.327,185.698,216.327z"/>
<path style="fill:#E2AD50;" d="M144.626,330.582l8.935,50.522c2.665,15.073,8.166,26.857,14.999,33.261  c1.308,1.222,2.665,2.175,4.046,2.848c-2.201,0.525-4.438,0.905-6.687,1.112c-8.056,0.734-16.233-0.538-23.691-3.961  c-13.948-6.406-25.157-18.19-30.609-33.261l-18.251-50.522c-20.097-55.583,21.099-114.258,80.202-114.258h10.33  C154.956,216.324,134.786,275,144.626,330.582z"/>
<path style="fill:#62DCD2;" d="M194.322,193.898c49.446,0,89.535-40.088,89.535-89.535c-24.723,0-47.11,10.025-63.315,26.231  C204.347,146.788,194.322,169.175,194.322,193.898z"/>
<path style="fill:#C69C6D;" d="M271.41,265.879h122.23c19.911,0,36.052,16.141,36.052,36.052v8.185l0,0  c-7.062,0-12.787,5.725-12.787,12.787v134.414c0,9.006-7.301,16.307-16.307,16.307H264.454c-9.006,0-16.307-7.301-16.307-16.307  V322.905c0-7.062-5.725-12.787-12.787-12.787l0,0v-8.185C235.359,282.02,251.5,265.879,271.41,265.879z"/>
<path d="M465.967,1.199c-2.649-1.559-5.929-1.599-8.615-0.106c-29.535,16.413-64.802,16.413-94.337,0  c-2.628-1.46-5.833-1.448-8.453,0.013c-29.531,16.402-64.786,16.4-94.289,0.009c-2.628-1.478-5.85-1.476-8.486-0.013  c-29.531,16.407-64.792,16.406-94.361-0.022c-2.617-1.444-5.82-1.423-8.434,0.028C119.461,17.51,84.204,17.51,54.616,1.074  c-2.688-1.479-5.957-1.428-8.6,0.133c-2.641,1.562-4.262,4.402-4.262,7.47v471.429c0,17.586,14.307,31.892,31.892,31.892h364.705  c17.585,0,31.892-14.307,31.892-31.892V158.907c0-4.793-3.884-8.678-8.678-8.678c-4.794,0-8.678,3.886-8.678,8.678v321.201  c0,8.015-6.52,14.536-14.536,14.536H73.647c-8.014,0-14.536-6.52-14.536-14.536V91.19h50.51c4.793,0,8.678-3.886,8.678-8.678  c0-4.793-3.886-8.678-8.678-8.678H59.113v-9.361h393.775v9.361H138.551c-4.793,0-8.678,3.886-8.678,8.678  c0,4.793,3.886,8.678,8.678,8.678h314.337v38.79c0,4.793,3.884,8.678,8.678,8.678c4.794,0,8.678-3.886,8.678-8.678V8.679  C470.245,5.603,468.618,2.758,465.967,1.199z M59.113,47.116V22.432c30.406,12.309,64.426,11.003,94.116-3.938  c32.516,16.382,70.295,16.379,102.789,0.002c32.508,16.376,70.273,16.374,102.781,0c29.646,14.931,63.669,16.244,94.089,3.934  v24.685C452.888,47.116,59.113,47.116,59.113,47.116z"/>
<path d="M408.225,322.905v134.414c0,4.206-3.423,7.629-7.63,7.629h-11.639c-4.794,0-8.678,3.886-8.678,8.678  c0,4.793,3.884,8.678,8.678,8.678h11.639c13.778,0,24.987-11.209,24.987-24.986V322.905c0-2.266,1.843-4.109,4.109-4.109  c4.794,0,8.678-3.886,8.678-8.678v-8.185c0-24.664-20.066-44.731-44.73-44.731h-96.742c-16.44-30.706-47.667-49.558-82.793-49.558  h-11.59c-0.001-1.817-0.059-3.624-0.171-5.422c50.413-4.099,90.191-46.406,90.191-97.859c0-4.793-3.884-8.678-8.678-8.678  c-26.232,0-50.897,10.218-69.451,28.773c-11.142,11.142-19.25,24.5-23.97,39.069c-6.453-10.909-15.31-20.437-26.154-27.762  c-3.972-2.683-9.367-1.638-12.049,2.334c-2.683,3.972-1.638,9.367,2.334,12.049c19.147,12.933,30.58,34.425,30.593,57.497h-11.576  c-31.035,0-59.062,14.569-76.897,39.973c-17.838,25.408-22.021,56.724-11.475,85.922l18.252,50.491  c1.694,4.719,3.93,9.26,6.66,13.527c3.654,5.666,8.117,10.728,13.251,15.033c4.603,3.875,9.729,7.124,15.244,9.662  c7.226,3.314,15.001,4.979,22.869,4.979c6.416,0,12.895-1.109,19.184-3.335c2.201-0.78,4.51-1.371,6.867-1.755  c6.471-1.06,13.211-0.459,19.489,1.763c4.539,1.596,9.226,2.624,13.928,3.057c4.767,0.439,8.999-3.072,9.439-7.844  c0.44-4.773-3.072-8.999-7.844-9.439c-3.285-0.303-6.571-1.026-9.749-2.143c-6.114-2.165-12.492-3.263-18.958-3.263  c-3.048,0-6.112,0.249-9.105,0.738c-3.373,0.551-6.693,1.4-9.863,2.525c-9.719,3.441-20.026,3.064-29.011-1.056  c-4.093-1.883-7.898-4.294-11.324-7.178c-3.813-3.197-7.121-6.95-9.815-11.127c-2.015-3.146-3.672-6.515-4.934-10.029  l-18.258-50.506c-8.597-23.803-5.186-49.335,9.356-70.051c14.54-20.71,37.39-32.589,62.691-32.589h20.149  c0.036,0,0.071,0.006,0.106,0.006s0.071-0.005,0.106-0.006h20.16c25.356,0,48.226,12.054,62.444,32.201h-5.139  c-24.664,0-44.73,20.066-44.73,44.731v8.185c0,4.793,3.886,8.678,8.678,8.678c2.266,0,4.109,1.843,4.109,4.109v134.414  c0,13.777,11.209,24.986,24.986,24.986h95.576c4.794,0,8.678-3.886,8.678-8.678c0-4.793-3.884-8.678-8.678-8.678h-95.576  c-4.207,0-7.629-3.423-7.629-7.629V322.905c0-8.749-5.263-16.293-12.788-19.633v-1.34c0-15.093,12.279-27.374,27.373-27.374H393.64  c15.093,0,27.373,12.279,27.373,27.374v1.34C413.488,306.611,408.225,314.156,408.225,322.905z M226.678,136.729  c13.086-13.086,29.864-21.136,47.982-23.175c-4.235,37.256-33.891,66.91-71.145,71.145  C205.552,166.584,213.598,149.809,226.678,136.729z"/>
<path d="M372.178,427.275c-2.026-3.083-5.981-4.531-9.523-3.538c-3.647,1.022-6.262,4.358-6.358,8.151  c-0.194,7.754,9.574,11.779,14.924,6.223C373.992,435.23,374.447,430.595,372.178,427.275z"/>
<path d="M297.208,411.793c-4.276-6.503-14.683-4.111-15.795,3.544c-1.146,7.893,8.483,13.06,14.408,7.704  C298.987,420.181,299.543,415.334,297.208,411.793z"/>
<path d="M348.549,370.229c-4.439-6.754-15.277-3.853-15.861,4.181c-0.567,7.826,9.203,12.35,14.784,6.777  C350.379,378.286,350.802,373.643,348.549,370.229z"/>
<path d="M374.609,314.804c3.054-7.254-4.839-14.52-11.821-11.113c-3.427,1.672-5.389,5.523-4.729,9.281  c0.609,3.473,3.307,6.27,6.756,7.002C368.817,320.822,373.077,318.619,374.609,314.804z"/>
<g>
</g>
<g>
</g>
<g>
</g>
<g>
</g>
<g>
</g>
<g>
</g>
<g>
</g>
<g>
</g>
<g>
</g>
<g>
</g>
<g>
</g>
<g>
</g>
<g>
</g>
<g>
</g>
<g>
</g>
</svg>
