<svg id="Layer_2" data-name="Layer 2" xmlns="http://www.w3.org/2000/svg" viewBox="0 0 128 128"><title>GUITAR PICK</title><path d="M107.325,51.427H90a1.367,1.367,0,0,1-1.354-.991A13.7,13.7,0,0,0,75.281,39.844h-.1V38.351l23.656,1.614c.162.011.323.016.484.016a7.187,7.187,0,1,0-.483-14.358l-23.93,1.632a7.075,7.075,0,0,0-13.622,0L37.358,25.623a7.187,7.187,0,1,0-.484,14.358c.161,0,.323-.005.484-.016l23.656-1.614v1.518A13.864,13.864,0,0,0,48.2,50.5a1.365,1.365,0,0,1-1.354,1H33.506A13.6,13.6,0,0,0,19.92,65.081V75.494a3.944,3.944,0,0,0-3.037,3.829V82.7a3.949,3.949,0,0,0,3.944,3.944H36.175A3.949,3.949,0,0,0,40.119,82.7V79.323a3.939,3.939,0,0,0-2.6-3.693V70.175A1.082,1.082,0,0,1,38.6,69.094h8.165a1.363,1.363,0,0,1,1.363,1.024A13.817,13.817,0,0,0,61.582,81.042h13.7A13.8,13.8,0,0,0,88.734,70.118,1.363,1.363,0,0,1,90.1,69.094h17.228a3.8,3.8,0,0,0,3.792-3.792V55.219A3.8,3.8,0,0,0,107.325,51.427ZM99.077,29.115a3.687,3.687,0,1,1,0,7.357l-23.895-1.63v-4.1ZM68.1,25.594a3.587,3.587,0,0,1,3.583,3.583V39.844H64.515V29.177A3.587,3.587,0,0,1,68.1,25.594ZM37.12,36.472a3.687,3.687,0,1,1-.26-7.366c.086,0,.173,0,.26.009l23.895,1.63v4.1Zm-.5,46.228a.445.445,0,0,1-.444.444H20.827a.445.445,0,0,1-.444-.444V79.323a.445.445,0,0,1,.444-.444H36.175a.445.445,0,0,1,.444.444Zm71-17.4a.292.292,0,0,1-.292.292H90.1a4.874,4.874,0,0,0-4.787,3.8,10.342,10.342,0,0,1-3.35,5.651,10.219,10.219,0,0,1-6.68,2.5h-13.7A10.3,10.3,0,0,1,51.553,69.4a4.874,4.874,0,0,0-4.787-3.8H38.6a4.586,4.586,0,0,0-4.581,4.581v5.2H23.42v-10.3A10.1,10.1,0,0,1,33.506,54.994H46.844a4.892,4.892,0,0,0,4.765-3.706,10.333,10.333,0,0,1,9.974-7.945h13.7a10.342,10.342,0,0,1,9.962,7.9A4.835,4.835,0,0,0,90,54.927h17.322a.292.292,0,0,1,.292.292Z"/><path d="M27.53,92.99a2.818,2.818,0,0,0,.3.16c.109.04.22.07.33.1a1.941,1.941,0,0,0,.34.03,1.8,1.8,0,0,0,1.24-.51,2.113,2.113,0,0,0,.22-.27,2.249,2.249,0,0,0,.16-.3c.04-.11.069-.22.1-.33a1.923,1.923,0,0,0,0-.68c-.03-.11-.06-.22-.1-.33a3.062,3.062,0,0,0-.16-.3,2.047,2.047,0,0,0-.22-.27,1.766,1.766,0,0,0-1.58-.47,1.361,1.361,0,0,0-.33.1,1.233,1.233,0,0,0-.3.16,1.384,1.384,0,0,0-.271.21,1.36,1.36,0,0,0-.21.27,1.733,1.733,0,0,0-.17.3c-.04.11-.07.22-.1.33a1.9,1.9,0,0,0-.03.34,1.8,1.8,0,0,0,.51,1.24A1.977,1.977,0,0,0,27.53,92.99Z"/><path d="M33.29,98.51a3.061,3.061,0,0,0,.1-.32,2.018,2.018,0,0,0,.03-.35,1.986,1.986,0,0,0-.03-.34c-.03-.11-.06-.22-.1-.33s-.1-.2-.16-.3a2.806,2.806,0,0,0-.22-.26,1.43,1.43,0,0,0-.271-.22,1.413,1.413,0,0,0-.3-.16,1.253,1.253,0,0,0-.33-.1,1.55,1.55,0,0,0-.68,0,1.361,1.361,0,0,0-.33.1,2.124,2.124,0,0,0-.3.16,1.366,1.366,0,0,0-.261.22,1.35,1.35,0,0,0-.22.26,1.449,1.449,0,0,0-.16.3,1.956,1.956,0,0,0-.14.67,1.382,1.382,0,0,0,.04.35,1.182,1.182,0,0,0,.1.32,1.3,1.3,0,0,0,.16.31,1.336,1.336,0,0,0,.22.26,1.718,1.718,0,0,0,1.23.51,1.913,1.913,0,0,0,.34-.03,1.807,1.807,0,0,0,.33-.1,1.414,1.414,0,0,0,.3-.16,1.43,1.43,0,0,0,.271-.22,2.743,2.743,0,0,0,.22-.26A3.087,3.087,0,0,0,33.29,98.51Z"/><path d="M26.95,98.51a3.061,3.061,0,0,0,.1-.32,2.119,2.119,0,0,0,.03-.35,2,2,0,0,0-.03-.34c-.03-.11-.06-.22-.1-.33s-.1-.2-.16-.3a2.816,2.816,0,0,0-.221-.26,1.771,1.771,0,0,0-1.579-.48,1.361,1.361,0,0,0-.33.1,1.75,1.75,0,0,0-.57.38,1.687,1.687,0,0,0-.21.26,2.226,2.226,0,0,0-.17.3c-.04.11-.07.22-.1.33a2.085,2.085,0,0,0-.029.34,2.117,2.117,0,0,0,.029.35,3.061,3.061,0,0,0,.1.32,1.45,1.45,0,0,0,.17.3,1.371,1.371,0,0,0,.21.27,1.993,1.993,0,0,0,.27.22,1.446,1.446,0,0,0,.3.16,2.043,2.043,0,0,0,.33.1,1.989,1.989,0,0,0,.34.03,1.753,1.753,0,0,0,1.239-.51,2,2,0,0,0,.221-.27A2.28,2.28,0,0,0,26.95,98.51Z"/><path d="M20.92,102.92a1.779,1.779,0,0,0-.51,1.24,1.75,1.75,0,0,0,3.5,0,1.78,1.78,0,0,0-.511-1.24A1.82,1.82,0,0,0,20.92,102.92Z"/><path d="M30.12,103.49a2.242,2.242,0,0,0-.16-.3,2.079,2.079,0,0,0-.22-.27,1.772,1.772,0,0,0-1.58-.48,2.043,2.043,0,0,0-.33.1,1.666,1.666,0,0,0-.3.16,1.979,1.979,0,0,0-.271.22,1.375,1.375,0,0,0-.21.27,1.433,1.433,0,0,0-.17.3,2.821,2.821,0,0,0-.1.32,2.013,2.013,0,0,0-.03.35,1.756,1.756,0,0,0,.51,1.23,1.43,1.43,0,0,0,.271.22,1.7,1.7,0,0,0,.3.16,1.381,1.381,0,0,0,.33.1,1.956,1.956,0,0,0,.34.04,1.766,1.766,0,0,0,1.24-.52,2.9,2.9,0,0,0,.22-.26c.06-.1.109-.2.16-.3s.069-.22.1-.33a1.992,1.992,0,0,0,.03-.34,2.013,2.013,0,0,0-.03-.35A3.034,3.034,0,0,0,30.12,103.49Z"/><path d="M36.46,103.49a2.136,2.136,0,0,0-.16-.3,2,2,0,0,0-.22-.27,1.772,1.772,0,0,0-1.58-.48,1.759,1.759,0,0,0-.63.26,1.822,1.822,0,0,0-.271.22,1.413,1.413,0,0,0-.21.27,1.072,1.072,0,0,0-.16.3,1.18,1.18,0,0,0-.1.32,1.378,1.378,0,0,0-.04.35,1.307,1.307,0,0,0,.04.34,1.369,1.369,0,0,0,.1.33,1.449,1.449,0,0,0,.16.3,1.723,1.723,0,0,0,.21.26,1.822,1.822,0,0,0,.271.22,2.128,2.128,0,0,0,.3.16,1.394,1.394,0,0,0,.33.1,1.956,1.956,0,0,0,.34.04,1.766,1.766,0,0,0,1.24-.52,2.743,2.743,0,0,0,.22-.26c.06-.1.11-.2.16-.3a2.016,2.016,0,0,0,.1-.33,1.909,1.909,0,0,0,.03-.34,2.013,2.013,0,0,0-.03-.35A1.662,1.662,0,0,0,36.46,103.49Z"/></svg>