<?xml version="1.0" encoding="utf-8"?>
<!-- Generator: Adobe Illustrator 16.0.0, SVG Export Plug-In . SVG Version: 6.00 Build 0)  -->
<!DOCTYPE svg PUBLIC "-//W3C//DTD SVG 1.1//EN" "http://www.w3.org/Graphics/SVG/1.1/DTD/svg11.dtd">
<svg version="1.1" id="Layer_1" xmlns="http://www.w3.org/2000/svg" xmlns:xlink="http://www.w3.org/1999/xlink" x="0px" y="0px"
	 width="128px" height="128px" viewBox="0 0 128 128" enable-background="new 0 0 128 128" xml:space="preserve">
<g>
	<g>
		<g>
			<g>
				<path fill="#282D33" d="M54.381,23.281h-12.28c-9.171,0-16.632-7.523-16.632-16.771V3.103h12.283
					c9.169,0,16.629,7.523,16.629,16.77V23.281z M29.483,7.103c0.308,6.768,5.85,12.178,12.618,12.178h8.267
					C50.062,12.513,44.52,7.103,37.752,7.103H29.483z"/>
			</g>
			<g>
				<path fill="#282D33" d="M62.186,37.902h-4V9.696C58.186,4.35,62.501,0,67.807,0v4c-3.1,0-5.621,2.555-5.621,5.696V37.902z"/>
			</g>
			<g>
				<path fill="#282D33" d="M47.179,128c-28.423,0-43.711-24.141-46.256-48.091c-2.399-29.57,6.34-42.365,14.093-47.9
					c9.32-6.654,22.3-6.893,36.548-0.672c1.862,0.778,3.274,1.495,4.41,2.071c1.653,0.839,2.481,1.243,3.233,1.243v4
					c-1.743,0-3.127-0.703-5.044-1.676c-1.076-0.546-2.416-1.226-4.17-1.959c-12.936-5.647-24.522-5.556-32.652,0.249
					C7.43,42.34,3.13,57.649,4.905,79.536C7.256,101.655,21.243,124,47.18,124c0.03,0,0.059,0,0.089,0
					c5.635-0.015,11.101-0.845,16.245-2.466l0.595-0.188l0.597,0.184c5.185,1.6,10.654,2.396,16.241,2.386
					c32.754-0.066,40.494-28.027,42.193-44.689c1.96-25.719-4.625-42.48-18.546-47.146l1.271-3.793
					c9.165,3.072,24.115,13.821,21.258,51.294c-3.128,30.683-19.953,48.281-46.167,48.334c-5.806-0.014-11.441-0.784-16.835-2.383
					c-5.355,1.622-11.019,2.451-16.843,2.467C47.246,128,47.212,128,47.179,128z"/>
			</g>
			<g>
				<path fill="#282D33" d="M87.389,38.696H58.384V24.225c0-8.778,7.083-15.919,15.788-15.919h29v14.471
					C103.172,31.555,96.092,38.696,87.389,38.696z M62.384,34.696h25.004c6.497,0,11.783-5.347,11.783-11.919V12.306h-25
					c-6.499,0-11.788,5.347-11.788,11.919V34.696z"/>
			</g>
		</g>
	</g>
	<g>
		<g>
			<g>
				<path fill="#282D33" d="M46.134,69.34l-3.473-1.984l8.004-13.998c3.079-5.384,7.309-8.35,11.913-8.35c0,0,0,0,0,0
					c4.604,0,8.834,2.966,11.912,8.351l7.766,13.571l-3.473,1.986l-7.766-13.572c-2.335-4.086-5.332-6.336-8.439-6.336
					c-3.107,0-6.104,2.25-8.44,6.336L46.134,69.34z"/>
			</g>
			<g>
				<polygon fill="#282D33" points="83.059,72.486 68.218,66.227 69.771,62.54 79.762,66.752 81.153,55.889 85.12,56.397 				"/>
			</g>
		</g>
		<g>
			<g>
				<path fill="#282D33" d="M57.755,110.203l-16.004-0.002c-0.001,0-0.003,0-0.004,0c-6.128,0-10.775-2.193-13.086-6.177
					c-2.332-4.02-1.915-9.209,1.175-14.613l7.766-13.573l3.473,1.986l-7.766,13.573c-2.353,4.113-2.774,7.885-1.188,10.619
					c1.565,2.698,4.985,4.185,9.628,4.185c0.001,0,0.002,0,0.003,0l16.005,0.002L57.755,110.203z"/>
			</g>
			<g>
				<polygon fill="#282D33" points="40.075,88.929 38.69,78.068 28.694,82.276 27.141,78.591 41.993,72.338 44.042,88.423 				"/>
			</g>
		</g>
		<g>
			<g>
				<path fill="#282D33" d="M66.895,109.916v-4l15.529-0.002c4.644,0,8.063-1.486,9.629-4.186c1.587-2.734,1.166-6.507-1.186-10.621
					l-8.008-13.996l3.473-1.986l8.008,13.997c3.089,5.404,3.505,10.595,1.173,14.613c-2.312,3.984-6.96,6.179-13.089,6.179
					L66.895,109.916z"/>
			</g>
			<g>
				<polygon fill="#282D33" points="74.473,117.674 61.721,107.847 74.478,98.024 76.917,101.194 68.274,107.849 76.914,114.506 
									"/>
			</g>
		</g>
	</g>
</g>
</svg>
