<?xml version="1.0" encoding="UTF-8"?>
<!DOCTYPE svg PUBLIC "-//W3C//DTD SVG 1.1//EN" "http://www.w3.org/Graphics/SVG/1.1/DTD/svg11.dtd">
<!-- Creator: CorelDRAW -->
<svg xmlns="http://www.w3.org/2000/svg" xml:space="preserve" width="6.82666in" height="6.82666in" style="shape-rendering:geometricPrecision; text-rendering:geometricPrecision; image-rendering:optimizeQuality; fill-rule:evenodd; clip-rule:evenodd"
viewBox="0 0 6.82666 6.82666"
 xmlns:xlink="http://www.w3.org/1999/xlink">
 <defs>
  <style type="text/css">
   <![CDATA[
    .fil8 {fill:none}
    .fil0 {fill:#444444}
    .fil4 {fill:#4E4E4F}
    .fil6 {fill:#565656}
    .fil7 {fill:#6A6A6A}
    .fil5 {fill:#565656;fill-rule:nonzero}
    .fil3 {fill:#6A6A6A;fill-rule:nonzero}
    .fil2 {fill:#8C8D8D;fill-rule:nonzero}
    .fil1 {fill:#A1A1A1;fill-rule:nonzero}
   ]]>
  </style>
 </defs>
 <g id="Layer_x0020_1">
  <metadata id="CorelCorpID_0Corel-Layer"/>
  <g id="_537579720">
   <rect id="_537585240" class="fil0" x="1.19123" y="5.49643" width="0.132701" height="0.0698425"/>
   <path id="_537585120" class="fil1" d="M0.995366 5.87093c0,0.0565512 0.0458504,0.102402 0.102402,0.102402 0.0565551,0 0.102402,-0.0458504 0.102402,-0.102402l0 -3.1392c0,-0.460134 0.188311,-0.878512 0.491697,-1.1819 0.303386,-0.303386 0.721764,-0.491697 1.1819,-0.491697l1.62633 0 0 0.275843c0,0.0565512 0.0458504,0.102402 0.102402,0.102402 0.0565551,0 0.102402,-0.0458504 0.102402,-0.102402l0 -0.378244c0,-0.0565512 -0.0458465,-0.102402 -0.102402,-0.102402l-1.72873 0c-0.516665,0 -0.986291,0.211291 -1.3267,0.551701 -0.340409,0.340406 -0.551701,0.810031 -0.551701,1.3267l0 3.1392z"/>
   <polygon id="_537585600" class="fil2" points="1.2374,5.79332 1.2374,5.26939 0.947551,5.26939 0.947551,5.79332 "/>
   <path id="_537585456" class="fil2" d="M4.57441 3.10612c0,0.0440197 0.052185,0.0675079 0.0851654,0.038311 0.0109843,-0.00972441 0.0172362,-0.0236378 0.0172362,-0.038311l0 -0.102398c0,-0.0440157 -0.052189,-0.0675039 -0.0851693,-0.0383071 -0.0109843,0.00972441 -0.0172323,0.0236339 -0.0172323,0.0383071l0 0.102398z"/>
   <path id="_537585528" class="fil2" d="M4.57441 3.51572c0,0.0440197 0.052185,0.0675079 0.0851654,0.038311 0.0109843,-0.00972441 0.0172362,-0.0236378 0.0172362,-0.038311l0 -0.102398c0,-0.0440157 -0.052189,-0.0675039 -0.0851693,-0.0383071 -0.0109843,0.00972441 -0.0172323,0.0236339 -0.0172323,0.0383071l0 0.102398z"/>
   <path id="_537585504" class="fil2" d="M4.57441 3.82293c0,0.0440157 0.052185,0.0675079 0.0851654,0.038311 0.0109843,-0.00972835 0.0172362,-0.0236378 0.0172362,-0.038311l0 -1.5748e-005c0,-0.0440157 -0.052189,-0.0675039 -0.0851693,-0.0383071 -0.0109843,0.00972441 -0.0172323,0.0236339 -0.0172323,0.0383071l0 1.5748e-005z"/>
   <path id="_537585648" class="fil2" d="M4.67681 2.59413c0,-0.0440157 -0.052189,-0.0675039 -0.0851693,-0.0383071 -0.0109843,0.00972441 -0.0172323,0.0236339 -0.0172323,0.0383071l0 0.102398c0,0.0440157 0.052185,0.0675079 0.0851654,0.038311 0.0109843,-0.00972441 0.0172362,-0.0236378 0.0172362,-0.038311l0 -0.102398z"/>
   <path id="_537585312" class="fil2" d="M5.06328 2.97812c0,0.0440157 0.052189,0.0675079 0.0851693,0.038311 0.0109843,-0.00972441 0.0172362,-0.0236378 0.0172362,-0.038311l0 -0.102398c0,-0.0440157 -0.052189,-0.0675079 -0.0851693,-0.038311 -0.0109843,0.00972441 -0.0172362,0.0236378 -0.0172362,0.038311l0 0.102398z"/>
   <path id="_537585360" class="fil3" d="M5.06328 3.38772c0,0.0440157 0.052189,0.0675079 0.0851693,0.038311 0.0109843,-0.00972441 0.0172362,-0.0236378 0.0172362,-0.038311l0 -0.102398c0,-0.0440157 -0.052189,-0.0675079 -0.0851693,-0.038311 -0.0109843,0.00972441 -0.0172362,0.0236378 -0.0172362,0.038311l0 0.102398z"/>
   <path id="_537584376" class="fil2" d="M5.06328 3.69493c0,0.0440157 0.052189,0.0675039 0.0851693,0.0383071 0.0109843,-0.00972441 0.0172362,-0.0236378 0.0172362,-0.0383071l0 -1.5748e-005c0,-0.0440157 -0.052189,-0.0675079 -0.0851693,-0.038311 -0.0109843,0.00972441 -0.0172362,0.0236378 -0.0172362,0.038311l0 1.5748e-005z"/>
   <path id="_537584808" class="fil2" d="M5.16569 2.46613c0,-0.0440157 -0.052189,-0.0675079 -0.0851693,-0.038311 -0.0109843,0.00972441 -0.0172362,0.0236378 -0.0172362,0.038311l0 0.102398c0,0.0440157 0.052189,0.0675079 0.0851693,0.038311 0.0109843,-0.00972441 0.0172362,-0.0236378 0.0172362,-0.038311l0 -0.102398z"/>
   <path id="_537584568" class="fil3" d="M4.03929 2.97812c0,0.0440157 0.052189,0.0675079 0.0851693,0.038311 0.0109803,-0.00972441 0.0172323,-0.0236378 0.0172323,-0.038311l0 -0.102398c0,-0.0440157 -0.052185,-0.0675079 -0.0851654,-0.038311 -0.0109843,0.00972441 -0.0172362,0.0236378 -0.0172362,0.038311l0 0.102398z"/>
   <path id="_537584544" class="fil2" d="M4.03929 3.38772c0,0.0440157 0.052189,0.0675079 0.0851693,0.038311 0.0109803,-0.00972441 0.0172323,-0.0236378 0.0172323,-0.038311l0 -0.102398c0,-0.0440157 -0.052185,-0.0675079 -0.0851654,-0.038311 -0.0109843,0.00972441 -0.0172362,0.0236378 -0.0172362,0.038311l0 0.102398z"/>
   <path id="_537584784" class="fil2" d="M4.03929 3.69493c0,0.0440157 0.052189,0.0675039 0.0851693,0.0383071 0.0109803,-0.00972441 0.0172323,-0.0236378 0.0172323,-0.0383071l0 -1.5748e-005c0,-0.0440157 -0.052185,-0.0675079 -0.0851654,-0.038311 -0.0109843,0.00972441 -0.0172362,0.0236378 -0.0172362,0.038311l0 1.5748e-005z"/>
   <path id="_537584880" class="fil2" d="M4.14169 2.46613c0,-0.0440157 -0.052185,-0.0675079 -0.0851654,-0.038311 -0.0109843,0.00972441 -0.0172362,0.0236378 -0.0172362,0.038311l0 0.102398c0,0.0440157 0.052189,0.0675079 0.0851693,0.038311 0.0109803,-0.00972441 0.0172323,-0.0236378 0.0172323,-0.038311l0 -0.102398z"/>
   <polygon id="_537584736" class="fil4" points="4.60249,1.10554 4.40457,1.10554 3.94363,1.29564 4.60249,1.29564 5.26134,1.29564 4.80041,1.10554 "/>
   <path id="_537584832" class="fil5" d="M3.47609 1.26293l2.2528 0c0.0565512,0 0.102402,0.038685 0.102402,0.0863976l0 0.165846c0,0.0477205 -0.0458504,0.0864016 -0.102402,0.0864016l-2.2528 0c-0.0565551,0 -0.102402,-0.0386811 -0.102402,-0.0864016l0 -0.165846c0,-0.0477126 0.0458465,-0.0863976 0.102402,-0.0863976z"/>
   <path id="_537584472" class="fil2" d="M5.68081 1.65339c0.0267283,-0.0497047 0.00810236,-0.111673 -0.0416024,-0.138406 -0.0971772,-0.052252 -1.97261,-0.0575945 -2.07063,-0.00879528 -0.0505906,0.0251811 -0.071185,0.0866102 -0.046,0.137201 0.162461,0.326 0.756594,0.415945 1.08188,0.415945 0.325657,0 0.90511,-0.0875236 1.07635,-0.405945z"/>
   <g>
    <circle id="_537583680" class="fil6" cx="3.64184" cy="1.64896" r="0.0260472"/>
    <circle id="_537583848" class="fil6" cx="3.79988" cy="1.64896" r="0.0260472"/>
    <circle id="_537583608" class="fil6" cx="3.95791" cy="1.64896" r="0.0260472"/>
    <circle id="_537584256" class="fil6" cx="4.11595" cy="1.64896" r="0.0260472"/>
    <circle id="_537583920" class="fil6" cx="4.27399" cy="1.64896" r="0.0260472"/>
    <circle id="_537584160" class="fil6" cx="4.43203" cy="1.64896" r="0.0260472"/>
    <circle id="_537584208" class="fil6" cx="4.59006" cy="1.64896" r="0.0260472"/>
    <circle id="_537583704" class="fil6" cx="4.7481" cy="1.64896" r="0.0260472"/>
    <circle id="_537582744" class="fil6" cx="4.90614" cy="1.64896" r="0.0260472"/>
    <circle id="_537583224" class="fil6" cx="5.06417" cy="1.64896" r="0.0260472"/>
    <circle id="_537582768" class="fil6" cx="5.22221" cy="1.64896" r="0.0260472"/>
    <circle id="_537583296" class="fil6" cx="5.38025" cy="1.64896" r="0.0260472"/>
    <circle id="_537583440" class="fil6" cx="5.53829" cy="1.64896" r="0.0260472"/>
   </g>
   <g>
    <circle id="_537583416" class="fil0" cx="3.89126" cy="1.77921" r="0.0260472"/>
    <circle id="_537583320" class="fil0" cx="4.04929" cy="1.77921" r="0.0260472"/>
    <circle id="_537582288" class="fil0" cx="4.20733" cy="1.77921" r="0.0260472"/>
    <circle id="_537582096" class="fil0" cx="4.36537" cy="1.77921" r="0.0260472"/>
    <circle id="_537581976" class="fil0" cx="4.5234" cy="1.77921" r="0.0260472"/>
    <circle id="_537582456" class="fil0" cx="4.68144" cy="1.77921" r="0.0260472"/>
    <circle id="_537582408" class="fil0" cx="4.83948" cy="1.77921" r="0.0260472"/>
    <circle id="_537582144" class="fil0" cx="4.99751" cy="1.77921" r="0.0260472"/>
    <circle id="_537582000" class="fil0" cx="5.15555" cy="1.77921" r="0.0260472"/>
    <circle id="_537582648" class="fil0" cx="5.31359" cy="1.77921" r="0.0260472"/>
   </g>
   <g>
    <circle id="_537581856" class="fil0" cx="3.95791" cy="1.90157" r="0.0260472"/>
    <circle id="_537581304" class="fil0" cx="4.11595" cy="1.90157" r="0.0260472"/>
    <circle id="_537581592" class="fil0" cx="4.27399" cy="1.90157" r="0.0260472"/>
    <circle id="_537581952" class="fil0" cx="4.43203" cy="1.90157" r="0.0260472"/>
    <circle id="_537581328" class="fil0" cx="4.59006" cy="1.90157" r="0.0260472"/>
    <circle id="_537581520" class="fil0" cx="4.7481" cy="1.90157" r="0.0260472"/>
    <circle id="_537581616" class="fil0" cx="4.90614" cy="1.90157" r="0.0260472"/>
    <circle id="_537581448" class="fil0" cx="5.06417" cy="1.90157" r="0.0260472"/>
    <circle id="_537581064" class="fil0" cx="5.22221" cy="1.90157" r="0.0260472"/>
   </g>
   <g>
    <circle id="_537580584" class="fil0" cx="4.19668" cy="2.00573" r="0.0260472"/>
    <circle id="_537580560" class="fil0" cx="4.35472" cy="2.00573" r="0.0260472"/>
    <circle id="_537581040" class="fil0" cx="4.51276" cy="2.00573" r="0.0260472"/>
    <circle id="_537580752" class="fil0" cx="4.67079" cy="2.00573" r="0.0260472"/>
    <circle id="_537580656" class="fil0" cx="4.82883" cy="2.00573" r="0.0260472"/>
    <circle id="_537580152" class="fil0" cx="4.98687" cy="2.00573" r="0.0260472"/>
   </g>
   <path id="_537579696" class="fil7" d="M1.30996 5.39749c0.104339,0.000791339 0.188583,0.0604173 0.188583,0.133866 0,0.0734488 -0.0842441,0.133075 -0.188583,0.133866l0 -0.267732z"/>
  </g>
  <rect class="fil8" width="6.82666" height="6.82666"/>
 </g>
</svg>
