<?xml version="1.0" encoding="utf-8"?>
<!-- Generator: Adobe Illustrator 24.0.0, SVG Export Plug-In . SVG Version: 6.00 Build 0)  -->
<svg version="1.1" id="Layer_1" xmlns="http://www.w3.org/2000/svg" xmlns:xlink="http://www.w3.org/1999/xlink" x="0px" y="0px"
	 viewBox="0 0 256 256" enable-background="new 0 0 256 256" xml:space="preserve">
<g>
</g>
<g>
	<path fill="#F0C020" d="M198.346,64.143c-3.961-1.309-8.051-2.453-10.348-12.345c-2.115,9.112-5.504,10.745-10.348,12.345
		c7.9,2.61,9.092,6.933,10.348,12.345C190.163,67.159,193.744,65.664,198.346,64.143z"/>
	<path d="M185.408,77.09c-1.147-4.945-1.905-8.212-8.591-10.421c-2.43-0.803-2.424-4.25,0-5.051
		c4.025-1.33,6.684-2.209,8.591-10.422c0.633-2.73,4.546-2.737,5.181,0c1.95,8.399,4.863,9.193,8.591,10.421
		c2.43,0.803,2.424,4.25,0,5.051c-3.881,1.282-6.686,2.209-8.591,10.421C189.953,79.832,186.045,79.832,185.408,77.09z
		 M183.888,64.204c1.914,1.314,3.222,2.815,4.164,4.403c1.141-2.017,2.462-3.405,3.934-4.439c-1.411-1.01-2.778-2.44-3.977-4.601
		C186.822,61.7,185.436,63.142,183.888,64.204z"/>
	<path fill="#F0C020" d="M108.996,160.229l-4.01,5.91l-53.92,79.44c-5.19,7.63-17.03,1.99-14.49-6.81l26.891-92.966
		c0.555-1.919-0.885-3.834-2.882-3.834H13.176c-5.41,0-9.3-5.21-7.79-10.39l34.76-118.92c0.98-3.42,4.19-5.82,7.77-5.82h51.96
		c5.43,0,9.29,5.19,7.79,10.34L85.457,94.44c-0.551,1.917,0.888,3.829,2.883,3.829h14.426
		C90.436,117.469,92.516,143.229,108.996,160.229z"/>
	<path fill="#E7A523" d="M108.996,160.229l-4.01,5.91c-17.13-16.98-23.15-44.3-10.35-67.87h8.13
		C90.436,117.469,92.516,143.229,108.996,160.229z"/>
	<path fill="#71C1E8" d="M185.246,155.299c-2.78,3.75-6.32,7.33-10.25,10.25c-19.64,14.68-47.6,13.1-65.45-4.75
		c-0.19-0.19-0.37-0.38-0.55-0.57c-16.48-17-18.56-42.76-6.23-61.96c1.91-2.98,4.17-5.8,6.78-8.41c19.6-19.6,51.35-19.6,70.94,0
		C198.336,107.709,199.926,135.649,185.246,155.299z"/>
	<path fill="#EEEEEE" d="M185.246,155.299l8.914,8.914l-10.249,10.249l-8.914-8.914
		C178.922,162.633,182.464,159.045,185.246,155.299z"/>
	<path fill="#71C1E8" d="M183.062,175.307l11.939-11.939c1.073-1.073,2.813-1.073,3.886,0l48.778,48.778
		c4.37,4.37,4.37,11.455,0,15.825l0,0c-4.37,4.37-11.455,4.37-15.825,0l-48.778-48.778
		C181.989,178.12,181.989,176.38,183.062,175.307z"/>
	<circle fill="#EEEEEE" cx="145.017" cy="125.325" r="36.246"/>
	<path fill="#13BF6D" d="M159.8,127.34c0,8.165-6.619,14.784-14.784,14.784c-8.165,0-14.784-6.619-14.784-14.784
		s14.784-25.844,14.784-25.844S159.8,119.175,159.8,127.34z"/>
	<path fill="#F7E4B0" d="M48.802,232.484c-1.326-0.384-2.09-1.771-1.706-3.097l0.834-2.882c0.383-1.325,1.766-2.093,3.097-1.706
		c1.326,0.384,2.09,1.771,1.706,3.097l-0.834,2.882C51.516,232.102,50.131,232.87,48.802,232.484z M52.415,219.996
		c-1.327-0.384-2.091-1.77-1.707-3.096l19.964-69.014c1.956-6.775-3.151-13.418-10.087-13.418H15.69
		c-1.666,0-2.866-1.604-2.399-3.201l33.651-115.13c0.387-1.325,1.774-2.085,3.101-1.698c1.325,0.387,2.086,1.775,1.698,3.101
		L19.025,129.469h41.56c10.23,0,17.779,9.815,14.89,19.808l-19.964,69.013C55.126,219.62,53.734,220.38,52.415,219.996z"/>
	<path fill="#C4E4FD" d="M238.826,220.984l-2.121-2.121c-0.977-0.977-0.977-2.559,0-3.535s2.559-0.977,3.535,0l2.121,2.121
		c0.977,0.977,0.977,2.559,0,3.535C241.385,221.961,239.803,221.961,238.826,220.984z M229.634,211.792l-34.458-34.458
		c-0.977-0.977-0.977-2.559,0-3.535s2.559-0.977,3.535,0l34.458,34.458c0.977,0.977,0.977,2.559,0,3.535
		C232.192,212.769,230.61,212.769,229.634,211.792z"/>
	<path d="M53.62,179.83c1.291,0.39,2.71-0.363,3.1-1.71c0.378-1.27-0.322-2.687-1.71-3.101c-1.3-0.37-2.72,0.42-3.09,1.71
		C51.543,177.997,52.243,179.421,53.62,179.83z"/>
	<path d="M142.51,144.42v4.729c0,1.381,1.13,2.5,2.51,2.5c1.37,0,2.49-1.119,2.49-2.5v-4.727c8.35-1.215,14.791-8.401,14.791-17.082
		c0-7.641-10.46-21.579-15.366-27.448c-1.016-1.212-2.845-1.187-3.836,0c-4.896,5.857-15.365,19.815-15.365,27.448
		C127.733,136.017,134.167,143.199,142.51,144.42z M147.51,108.75c2.461,3.346,4.959,7.083,6.821,10.48l-6.821,7.766V108.75z
		 M147.51,134.571l9.125-10.389c2.311,6.569-2.23,13.758-9.125,15.186V134.571z M142.51,108.77v11.991l-5.289-4.151
		C138.82,113.979,140.674,111.267,142.51,108.77z M134.759,121.04l7.751,6.078v12.247c-5.575-1.161-9.776-6.11-9.776-12.024
		C132.733,125.762,133.522,123.542,134.759,121.04z"/>
	<path d="M130.91,79.68c1.656,0,2.866-1.597,2.39-3.2c-0.37-1.29-1.81-2.08-3.1-1.699c-1.283,0.36-2.095,1.739-1.69,3.1
		C128.81,78.939,129.8,79.68,130.91,79.68z"/>
	<path d="M106.27,125.319c0,21.415,17.331,38.75,38.75,38.75c21.454,0,38.74-17.375,38.74-38.75
		c0-21.402-17.321-38.739-38.74-38.739C123.609,86.58,106.27,103.902,106.27,125.319z M145.02,91.58
		c18.651,0,33.74,15.093,33.74,33.739c0,18.702-15.131,33.75-33.74,33.75c-18.656,0-33.75-15.083-33.75-33.75
		C111.27,106.772,126.263,91.58,145.02,91.58z"/>
	<path d="M209.1,205.229c0.968-0.968,0.98-2.549,0-3.529c-0.939-0.95-2.59-0.95-3.53,0c-0.979,0.97-0.979,2.56-0.01,3.529
		C206.582,206.231,208.156,206.176,209.1,205.229z"/>
	<path d="M249.43,210.38l-48.78-48.78c-1.641-1.657-4.2-2.064-6.362-0.792l-5.778-5.778c6.063-8.856,9.171-19.257,9.171-29.72
		c0-30.948-26.606-55.161-57.17-52.46c-1.418,0.128-2.403,1.343-2.28,2.7c0.11,1.36,1.34,2.39,2.7,2.28
		c28.479-2.31,51.75,20.049,51.75,47.479c0,26.315-21.27,47.681-47.67,47.681c-26.459,0-47.66-21.49-47.66-47.671
		c0-18.414,10.437-34.265,25.47-42.189c1.203-0.632,1.704-2.147,1.04-3.37c-0.655-1.266-2.212-1.68-3.369-1.05
		c-7.439,3.91-14.024,9.677-19.047,17.06H88.34c-0.29,0-0.5-0.26-0.5-0.5c0-0.029,0-0.08,0.02-0.14l22.21-77.26
		c1.966-6.81-3.185-13.519-10.189-13.53H47.92c-4.7,0.01-8.88,3.15-10.18,7.63L2.979,130.88c-1.98,6.806,3.178,13.566,10.2,13.59
		h47.41c0.354,0,0.574,0.387,0.47,0.64L54.7,167.13c-0.402,1.351,0.393,2.723,1.699,3.09c1.286,0.392,2.711-0.37,3.101-1.7
		c0-0.01,0-0.01,0-0.02l6.37-22c1.015-3.633-1.738-7.019-5.28-7.03H13.18c-3.746-0.012-6.448-3.626-5.399-7.18L42.55,13.359
		c0.65-2.329,2.9-4.02,5.34-4.02h51.99c3.587,0,6.447,3.387,5.38,7.15C81.477,99.222,82.84,94.098,82.84,95.27
		c0,3.021,2.47,5.49,5.5,5.5h10.08c-3.98,7.53-6.07,15.93-6.07,24.55c0,13.075,4.765,25.467,13.461,35.148L49,244.17
		c-3.734,5.374-11.77,1.238-10.03-4.7l14.97-51.74c0.375-1.26-0.317-2.694-1.71-3.1c-1.29-0.38-2.72,0.42-3.09,1.71l-14.97,51.729
		c-3.327,11.661,12.34,18.808,18.96,8.91l56.255-82.882c9.819,9.044,22.494,13.893,35.625,13.893c10.246,0,20.677-2.98,29.716-9.177
		l5.777,5.771c-1.278,2.161-0.84,4.748,0.788,6.376l17.2,17.2c0.949,0.939,2.59,0.949,3.54,0c0.989-0.991,0.954-2.586,0.01-3.53
		h-0.01c-0.12-0.12-17.271-17.21-17.271-17.38c0-0.08,0.021-0.12,0.06-0.17c0.129-0.129,11.94-11.995,12.12-12.021
		c0.08,0.01,0.13,0.021,0.181,0.07l48.779,48.78c3.358,3.356,3.42,8.849,0,12.29c-3.369,3.369-8.866,3.422-12.29,0L216.17,208.77
		c-0.94-0.95-2.59-0.95-3.53,0c-0.994,0.976-0.983,2.568,0,3.53l17.43,17.44c5.311,5.287,13.953,5.405,19.36,0
		C254.794,224.374,254.767,215.697,249.43,210.38z M183.91,170.92l-5.16-5.15c2.298-1.918,4.681-4.279,6.72-6.71l5.15,5.15
		L183.91,170.92z"/>
</g>
</svg>
