<svg xmlns="http://www.w3.org/2000/svg" width="48" height="48" viewBox="0 0 48 48">
  <g>
    <rect y="44.25" width="48" height="3.75" fill="#c6c6c6"/>
    <polygon points="43.875 39.75 24 39.75 4.125 39.75 0 44.25 48 44.25 43.875 39.75" fill="#e2e2e2"/>
    <rect x="4.125" width="39.75" height="39.75" fill="#c6c6c6"/>
    <g>
      <path d="M15.313,21.75H7.875V36H22.081V28.388A11.076,11.076,0,0,1,15.313,21.75Z" fill="#fddc85"/>
      <path d="M7.875,17.955h6.75v-.017A11.059,11.059,0,0,1,22.08,7.489V3.75H7.874v14.2Z" fill="#fddc85"/>
      <path d="M25.92,3.75V6.888a11.053,11.053,0,0,1,0,22.1V36H40.126V3.751H25.92Z" fill="#fddc85"/>
    </g>
    <g>
      <path d="M22.081,28.388V21.75H15.313A11.076,11.076,0,0,0,22.081,28.388Z" fill="#ffbd66"/>
      <path d="M14.625,17.939v.017h7.455V7.49A11.057,11.057,0,0,0,14.625,17.939Z" fill="#ffbd66"/>
      <path d="M25.92,6.888v22.1a11.053,11.053,0,0,0,0-22.1Z" fill="#ffbd66"/>
    </g>
    <g>
      <path d="M7.875,36H22.081V21.75H7.875ZM9,22.875H20.956v12H9Z" fill="#e2e2e2"/>
      <path d="M7.875,17.955H22.081V3.75H7.875ZM9,4.875H20.956V16.83H9Z" fill="#e2e2e2"/>
      <path d="M25.92,3.75V36H40.126V3.75ZM39,34.875H27.044v-30H39Z" fill="#e2e2e2"/>
    </g>
  </g>
</svg>
