<svg xmlns="http://www.w3.org/2000/svg" width="128" height="128" viewBox="0 0 128 128">
  <title>UNPLUGGED</title>
  <g>
    <path d="M51.132,64.551a1.75,1.75,0,0,1-1.238-2.987L60.608,50.85a1.75,1.75,0,0,1,2.475,2.474L52.369,64.038A1.743,1.743,0,0,1,51.132,64.551Z" fill="#315693"/>
    <path d="M66.1,79.519a1.751,1.751,0,0,1-1.238-2.988L75.576,65.817a1.75,1.75,0,1,1,2.475,2.475L67.337,79.006A1.743,1.743,0,0,1,66.1,79.519Z" fill="#315693"/>
    <path d="M25.826,104.7a1.75,1.75,0,0,1-1.237-2.987l5.6-5.6a1.75,1.75,0,0,1,2.474,2.475l-5.6,5.6A1.744,1.744,0,0,1,25.826,104.7Z" fill="#315693"/>
    <path d="M101.87,28.908a1.75,1.75,0,0,1-1.237-2.987l5.6-5.6A1.75,1.75,0,0,1,108.7,22.8l-5.6,5.6A1.744,1.744,0,0,1,101.87,28.908Z" fill="#315693"/>
    <path d="M29.742,66.2H67.772a0,0,0,0,1,0,0V82.5A11.588,11.588,0,0,1,56.184,94.085H41.33A11.588,11.588,0,0,1,29.742,82.5V66.2a0,0,0,0,1,0,0Z" transform="translate(70.951 -11.003) rotate(45)" fill="#6bc1b0"/>
    <path d="M57.731,84.393a1.743,1.743,0,0,1-1.237-.513l-11.6-11.6A1.749,1.749,0,1,1,47.367,69.8l11.6,11.6a1.751,1.751,0,0,1-1.238,2.988Z" fill="#fff"/>
    <rect x="28.65" y="88.467" width="13.085" height="10.483" transform="translate(76.57 2.562) rotate(45)" fill="#38a590"/>
    <path d="M65.52,30.423H103.55a0,0,0,0,1,0,0v16.3A11.588,11.588,0,0,1,91.962,58.307H77.108A11.588,11.588,0,0,1,65.52,46.719v-16.3a0,0,0,0,1,0,0Z" transform="translate(112.939 135.511) rotate(-135)" fill="#6bc1b0"/>
    <path d="M87.162,55.217a1.743,1.743,0,0,1-1.237-.513l-11.6-11.6A1.75,1.75,0,1,1,76.8,40.628l11.6,11.6a1.751,1.751,0,0,1-1.237,2.988Z" fill="#fff"/>
    <rect x="91.557" y="25.559" width="13.085" height="10.483" transform="translate(145.687 121.947) rotate(-135)" fill="#38a590"/>
  </g>
</svg>
